<svg xmlns="http://www.w3.org/2000/svg" xmlns:xlink="http://www.w3.org/1999/xlink" width="280" zoomAndPan="magnify" viewBox="0 0 210 43.499998" height="58" preserveAspectRatio="xMidYMid meet" version="1.0"><defs><g/></defs><g fill="#ffffff" fill-opacity="1"><g transform="translate(1.958553, 30.857143)"><g><path d="M 16.425781 -21.761719 C 11.8125 -19.816406 10.097656 -5.257812 8.195312 -1.105469 C 7.925781 0.265625 11.472656 0.457031 12.121094 -0.496094 C 12.765625 -1.945312 13.492188 -5.410156 14.445312 -8.878906 C 21.609375 -6.746094 27.363281 -10.136719 28.394531 -16.464844 C 29.496094 -23.058594 23.589844 -26.410156 17.605469 -26.488281 C 10.863281 -26.5625 4.382812 -23.285156 4.382812 -17.644531 C 4.382812 -15.855469 5.222656 -14.253906 6.746094 -13.222656 C 7.773438 -12.765625 9.488281 -14.101562 9.261719 -14.902344 C 6.402344 -19.628906 11.699219 -23.894531 17.644531 -23.707031 C 21.378906 -23.550781 24.847656 -21.304688 24.164062 -16.84375 C 23.476562 -12.234375 19.816406 -10.023438 15.09375 -11.320312 C 16.195312 -15.398438 17.417969 -19.816406 19.132812 -20.769531 C 19.589844 -21.378906 17.605469 -22.21875 16.425781 -21.761719 Z M 16.425781 -21.761719 "/></g></g></g><g fill="#ffffff" fill-opacity="1"><g transform="translate(31.03304, 30.857143)"><g><path d="M 0.992188 -6.402344 C 2.515625 -9.375 3.46875 -12.042969 4.152344 -14.519531 C 4.953125 -13.566406 6.515625 -12.308594 5.640625 -10.976562 C 4.117188 -8.726562 2.476562 -6.210938 2.476562 -3.773438 C 2.476562 -1.410156 3.925781 0.304688 6.898438 0.34375 C 11.355469 0.382812 14.367188 -3.125 16.351562 -7.660156 C 16.539062 -8.078125 15.246094 -8.878906 15.054688 -8.460938 C 12.996094 -4 10.175781 -2.363281 8.382812 -2.363281 C 7.164062 -2.363281 6.746094 -3.203125 6.820312 -4.304688 C 6.9375 -6.097656 8.269531 -8.15625 9.71875 -9.984375 C 11.625 -12.425781 7.8125 -14.824219 5.679688 -17.035156 C 7.050781 -22.449219 -0.496094 -20.351562 2.859375 -15.550781 C 1.945312 -12.234375 1.144531 -10.214844 -0.382812 -7.125 C -0.648438 -6.632812 0.722656 -5.945312 0.992188 -6.402344 Z M 0.992188 -6.402344 "/></g></g></g><g fill="#ffffff" fill-opacity="1"><g transform="translate(45.779866, 30.857143)"><g><path d="M 9.070312 -16.121094 C 4.765625 -15.398438 0.304688 -11.015625 -0.535156 -5.90625 C -1.21875 -1.640625 0.914062 0.382812 3.695312 0.34375 C 6.785156 0.265625 8.460938 -2.097656 9.792969 -4.421875 C 9.335938 -1.601562 10.367188 0.152344 12.195312 0.152344 C 15.777344 0.152344 18.75 -3.507812 20.734375 -7.660156 C 20.960938 -8.117188 19.589844 -8.878906 19.398438 -8.421875 C 18.027344 -5.105469 15.433594 -2.515625 14.023438 -2.476562 C 13.148438 -2.476562 12.917969 -3.355469 13.339844 -5.257812 C 13.683594 -7.125 14.367188 -9.414062 14.785156 -10.863281 C 14.632812 -11.660156 11.8125 -12.460938 11.128906 -11.585938 C 9.832031 -6.707031 6.023438 -0.914062 4.152344 -2.742188 C 3.277344 -3.621094 3.507812 -6.210938 4.6875 -8.6875 C 5.867188 -11.203125 7.964844 -13.148438 10.175781 -13.453125 C 11.929688 -13.683594 14.0625 -13.148438 15.625 -11.890625 C 16.234375 -11.585938 17.796875 -13.339844 17.417969 -13.949219 C 15.28125 -16.121094 11.585938 -16.539062 9.070312 -16.121094 Z M 9.070312 -16.121094 "/></g></g></g><g fill="#ffffff" fill-opacity="1"><g transform="translate(64.946929, 30.857143)"><g><path d="M 5.527344 0.304688 C 7.851562 0.34375 10.023438 -0.609375 11.738281 -2.210938 C 14.480469 -1.675781 17.875 -2.171875 20.390625 -7.660156 C 20.617188 -8.15625 19.207031 -8.878906 19.054688 -8.421875 C 17.453125 -4.6875 15.28125 -3.695312 13.300781 -3.8125 C 16.386719 -8.652344 16.578125 -15.359375 11.394531 -16.042969 C 9.488281 -16.273438 7.394531 -15.472656 5.867188 -14.367188 C 6.898438 -17.875 8.15625 -22.066406 9.335938 -25.113281 C 9.335938 -26.105469 6.175781 -26.640625 5.296875 -25.953125 C 3.847656 -22.21875 0.113281 -11.8125 0.535156 -6.25 C 0.417969 -2.667969 1.371094 0.265625 5.527344 0.304688 Z M 5.601562 -2.324219 C 2.363281 -2.667969 4 -8.574219 5.105469 -11.546875 C 6.515625 -12.765625 8.042969 -13.644531 9.414062 -13.566406 C 12.613281 -13.414062 11.050781 -8.15625 10.097656 -5.984375 C 8.996094 -6.25 8.078125 -4.800781 8.726562 -3.734375 C 7.964844 -2.820312 6.972656 -2.171875 5.601562 -2.324219 Z M 5.601562 -2.324219 "/></g></g></g><g fill="#ffffff" fill-opacity="1"><g transform="translate(83.732936, 30.857143)"><g><path d="M 5.296875 -18.445312 C 6.820312 -18.445312 7.890625 -19.398438 8.042969 -20.769531 C 8.230469 -22.105469 7.394531 -23.058594 6.023438 -23.058594 C 4.613281 -23.09375 3.542969 -22.140625 3.316406 -20.769531 C 3.125 -19.4375 4.039062 -18.445312 5.296875 -18.445312 Z M 2.402344 0.34375 C 6.363281 0.265625 9.222656 -4.191406 10.824219 -7.621094 C 11.050781 -8.117188 9.71875 -8.917969 9.488281 -8.421875 C 8.195312 -5.296875 5.679688 -2.324219 3.925781 -2.324219 C 3.125 -2.285156 3.164062 -3.316406 3.46875 -4.839844 C 4.039062 -7.433594 4.839844 -9.910156 6.328125 -15.207031 C 6.058594 -16.121094 2.933594 -16.578125 2.324219 -15.703125 C 0.992188 -11.089844 0.078125 -8.003906 -0.761719 -4.421875 C -1.449219 -1.488281 -0.761719 0.417969 2.402344 0.34375 Z M 2.402344 0.34375 "/></g></g></g><g fill="#ffffff" fill-opacity="1"><g transform="translate(92.954462, 30.857143)"><g><path d="M 0.992188 -6.402344 C 2.515625 -9.375 3.46875 -12.042969 4.152344 -14.519531 C 4.953125 -13.566406 6.515625 -12.308594 5.640625 -10.976562 C 4.117188 -8.726562 2.476562 -6.210938 2.476562 -3.773438 C 2.476562 -1.410156 3.925781 0.304688 6.898438 0.34375 C 11.355469 0.382812 14.367188 -3.125 16.351562 -7.660156 C 16.539062 -8.078125 15.246094 -8.878906 15.054688 -8.460938 C 12.996094 -4 10.175781 -2.363281 8.382812 -2.363281 C 7.164062 -2.363281 6.746094 -3.203125 6.820312 -4.304688 C 6.9375 -6.097656 8.269531 -8.15625 9.71875 -9.984375 C 11.625 -12.425781 7.8125 -14.824219 5.679688 -17.035156 C 7.050781 -22.449219 -0.496094 -20.351562 2.859375 -15.550781 C 1.945312 -12.234375 1.144531 -10.214844 -0.382812 -7.125 C -0.648438 -6.632812 0.722656 -5.945312 0.992188 -6.402344 Z M 0.992188 -6.402344 "/></g></g></g><g fill="#ffffff" fill-opacity="1"><g transform="translate(107.701288, 30.857143)"><g/></g></g><g fill="#ffffff" fill-opacity="1"><g transform="translate(116.656082, 30.857143)"><g><path d="M 21.835938 -19.894531 C 22.523438 -23.820312 20.199219 -26.449219 15.550781 -26.5625 C 11.167969 -26.601562 8.460938 -24.390625 8.078125 -20.695312 C 7.46875 -14.292969 15.777344 -11.96875 15.472656 -6.746094 C 15.320312 -3.964844 13.757812 -2.324219 11.089844 -2.363281 C 8.230469 -2.4375 6.136719 -5.257812 7.355469 -9.871094 C 7.355469 -10.976562 4.496094 -11.355469 3.964844 -10.480469 C 2.171875 -5.257812 3.8125 0.304688 10.746094 0.34375 C 15.929688 0.382812 19.4375 -2.132812 19.703125 -6.859375 C 20.085938 -12.917969 11.96875 -15.625 12.347656 -20.464844 C 12.5 -23.019531 14.101562 -23.820312 15.472656 -23.78125 C 17.378906 -23.78125 18.710938 -22.753906 18.484375 -20.007812 C 18.675781 -18.902344 21.457031 -18.75 21.835938 -19.894531 Z M 21.835938 -19.894531 "/></g></g></g><g fill="#ffffff" fill-opacity="1"><g transform="translate(139.328849, 30.857143)"><g><path d="M 5.296875 -18.445312 C 6.820312 -18.445312 7.890625 -19.398438 8.042969 -20.769531 C 8.230469 -22.105469 7.394531 -23.058594 6.023438 -23.058594 C 4.613281 -23.09375 3.542969 -22.140625 3.316406 -20.769531 C 3.125 -19.4375 4.039062 -18.445312 5.296875 -18.445312 Z M 2.402344 0.34375 C 6.363281 0.265625 9.222656 -4.191406 10.824219 -7.621094 C 11.050781 -8.117188 9.71875 -8.917969 9.488281 -8.421875 C 8.195312 -5.296875 5.679688 -2.324219 3.925781 -2.324219 C 3.125 -2.285156 3.164062 -3.316406 3.46875 -4.839844 C 4.039062 -7.433594 4.839844 -9.910156 6.328125 -15.207031 C 6.058594 -16.121094 2.933594 -16.578125 2.324219 -15.703125 C 0.992188 -11.089844 0.078125 -8.003906 -0.761719 -4.421875 C -1.449219 -1.488281 -0.761719 0.417969 2.402344 0.34375 Z M 2.402344 0.34375 "/></g></g></g><g fill="#ffffff" fill-opacity="1"><g transform="translate(148.550375, 30.857143)"><g><path d="M 11.851562 -16.234375 C 9.335938 -16.273438 6.746094 -13.796875 5.375 -12.195312 C 5.714844 -13.300781 5.867188 -13.949219 6.210938 -15.167969 C 5.832031 -16.351562 2.859375 -16.539062 2.25 -15.703125 C 0.722656 -10.136719 -0.570312 -5.792969 -1.792969 -0.722656 C -1.714844 0.535156 2.058594 0.417969 2.476562 -0.417969 C 3.277344 -3.847656 3.695312 -5.792969 4.765625 -9.375 C 6.175781 -11.28125 8.195312 -13.070312 9.527344 -13.109375 C 10.824219 -13.148438 10.632812 -11.890625 10.367188 -10.746094 C 10.023438 -9.183594 8.957031 -5.03125 8.726562 -3.734375 C 8.269531 -1.257812 9.148438 0.417969 12.042969 0.34375 C 15.738281 0.304688 18.597656 -4.34375 20.121094 -7.660156 C 20.3125 -8.117188 18.980469 -8.878906 18.789062 -8.421875 C 17.378906 -5.144531 15.128906 -2.324219 13.566406 -2.324219 C 12.613281 -2.324219 12.804688 -3.773438 13.109375 -5.183594 C 13.53125 -7.011719 14.328125 -9.148438 14.75 -10.898438 C 15.472656 -13.988281 14.75 -16.195312 11.851562 -16.234375 Z M 11.851562 -16.234375 "/></g></g></g><g fill="#ffffff" fill-opacity="1"><g transform="translate(167.069638, 30.857143)"><g><path d="M 9.453125 -16.160156 C 6.785156 -15.816406 3.773438 -14.140625 1.714844 -11.167969 C -1.753906 -6.289062 -1.640625 0.457031 3.695312 0.34375 C 6.667969 0.265625 8.535156 -2.171875 9.71875 -4.304688 C 9.148438 -2.402344 8.5 -0.34375 8.042969 1.027344 C 4.269531 2.25 0.191406 3.773438 -0.265625 7.433594 C -0.570312 9.945312 1.179688 11.355469 3.734375 11.28125 C 7.964844 11.242188 9.640625 8.613281 11.394531 2.210938 C 15.550781 0.417969 17.914062 -2.25 20.503906 -7.660156 C 20.734375 -8.117188 19.359375 -8.878906 19.167969 -8.460938 C 17.226562 -4.117188 14.941406 -1.449219 12.042969 -0.265625 C 13.222656 -4.460938 13.871094 -7.277344 14.902344 -10.863281 C 14.824219 -11.625 11.8125 -12.425781 11.28125 -11.625 C 10.785156 -10.0625 10.097656 -8.382812 9.488281 -7.125 C 7.699219 -3.46875 5.375 -1.675781 4.191406 -2.707031 C 3.277344 -3.582031 3.46875 -6.136719 4.726562 -8.6875 C 6.058594 -11.355469 8.15625 -13.300781 10.519531 -13.492188 C 12.195312 -13.644531 14.175781 -13.148438 15.703125 -11.929688 C 16.3125 -11.507812 17.875 -13.339844 17.53125 -13.949219 C 15.246094 -15.96875 11.96875 -16.464844 9.453125 -16.160156 Z M 7.433594 3.46875 C 7.203125 4.269531 7.011719 5.03125 6.785156 5.753906 C 5.527344 9.605469 2.285156 8.996094 3.46875 6.554688 C 4 5.449219 5.640625 4.230469 7.433594 3.46875 Z M 7.433594 3.46875 "/></g></g></g><g fill="#ffffff" fill-opacity="1"><g transform="translate(185.969956, 30.857143)"><g><path d="M 5.601562 -25.914062 C 3.429688 -20.121094 0.34375 -9.375 -1.714844 -0.761719 C -2.097656 0.722656 2.476562 0.34375 2.667969 -0.417969 C 3.355469 -3.582031 3.886719 -5.679688 4.878906 -9.300781 C 6.210938 -11.28125 8.230469 -13.109375 9.527344 -13.148438 C 10.898438 -13.1875 10.746094 -11.890625 10.441406 -10.746094 C 10.023438 -9.148438 8.839844 -5.410156 8.613281 -3.773438 C 8.269531 -1.410156 8.804688 0.496094 11.96875 0.34375 C 15.703125 0.191406 18.40625 -4.230469 20.007812 -7.660156 C 20.238281 -8.117188 18.863281 -8.917969 18.675781 -8.421875 C 17.339844 -5.257812 15.015625 -2.363281 13.53125 -2.324219 C 11.851562 -2.210938 13.378906 -5.832031 14.785156 -10.9375 C 15.664062 -13.988281 14.902344 -16.273438 11.8125 -16.234375 C 9.375 -16.234375 7.011719 -13.949219 5.601562 -12.347656 C 6.859375 -16.808594 8.5 -22.410156 9.605469 -25.078125 C 9.832031 -26.105469 6.363281 -26.679688 5.601562 -25.914062 Z M 5.601562 -25.914062 "/></g></g></g></svg>