<svg xmlns="http://www.w3.org/2000/svg" xmlns:xlink="http://www.w3.org/1999/xlink" width="280" zoomAndPan="magnify" viewBox="0 0 210 43.499998" height="58" preserveAspectRatio="xMidYMid meet" version="1.0"><defs><g/></defs><g fill="#ffffff" fill-opacity="1"><g transform="translate(1.015132, 30.57518)"><g><path d="M 15.191406 -19.144531 C 11.757812 -16.097656 9.589844 -5.179688 8.050781 -0.945312 C 8.15625 0.558594 12.703125 0.351562 13.441406 -0.558594 C 13.753906 -1.714844 14.558594 -4.445312 15.398438 -7.417969 C 23.238281 -5.738281 27.859375 -9.941406 28.875 -14.769531 C 30.203125 -21.210938 24.042969 -24.183594 18.058594 -24.21875 C 11.128906 -24.289062 3.988281 -21.734375 3.988281 -15.996094 C 3.988281 -14.28125 4.96875 -12.878906 6.511719 -12.214844 C 7.910156 -11.933594 9.765625 -13.542969 9.800781 -14.316406 C 8.328125 -18.585938 12.808594 -21.035156 17.847656 -20.964844 C 21.105469 -20.929688 24.183594 -19.109375 23.238281 -15.085938 C 22.363281 -11.304688 19.390625 -10.183594 16.273438 -10.5 C 17.394531 -14.316406 18.933594 -17.847656 19.496094 -18.621094 C 19.320312 -19.355469 16.484375 -19.878906 15.191406 -19.144531 Z M 15.191406 -19.144531 "/></g></g></g><g fill="#ffffff" fill-opacity="1"><g transform="translate(30.133317, 30.57518)"><g><path d="M 1.503906 -5.425781 C 2.800781 -7.664062 3.988281 -10.289062 4.621094 -12.53125 C 5.25 -11.933594 6.300781 -11.09375 5.601562 -9.941406 C 4.375 -7.945312 2.835938 -5.566406 2.800781 -3.429688 C 2.765625 -1.121094 4.304688 0.351562 7.523438 0.28125 C 12.390625 0.175781 15.15625 -3.078125 16.765625 -6.335938 C 16.941406 -6.648438 15.539062 -7.59375 15.292969 -7.175781 C 13.476562 -3.816406 10.988281 -2.976562 9.660156 -2.941406 C 8.574219 -2.90625 8.328125 -3.570312 8.539062 -4.445312 C 8.820312 -5.636719 9.765625 -7.140625 10.882812 -8.609375 C 13.089844 -11.515625 9.167969 -13.441406 6.824219 -15.574219 C 8.292969 -21.105469 -0.140625 -18.621094 3.148438 -13.476562 C 2.273438 -10.464844 1.261719 -8.539062 0 -6.230469 C -0.316406 -5.636719 1.191406 -4.863281 1.503906 -5.425781 Z M 1.503906 -5.425781 "/></g></g></g><g fill="#ffffff" fill-opacity="1"><g transform="translate(44.867396, 30.57518)"><g><path d="M 9.484375 -14.875 C 5.738281 -14.316406 0.769531 -10.851562 0.0351562 -5.320312 C -0.59375 -0.699219 2.273438 0.316406 4.445312 0.28125 C 7.628906 0.246094 9.203125 -1.890625 10.289062 -3.886719 C 10.007812 -1.363281 10.78125 0.28125 12.632812 0.28125 C 16.066406 0.28125 19.109375 -2.378906 21.210938 -6.300781 C 21.417969 -6.648438 19.949219 -7.59375 19.703125 -7.105469 C 18.585938 -4.792969 16.378906 -2.976562 15.328125 -2.941406 C 14.628906 -2.90625 14.28125 -3.710938 14.769531 -5.667969 C 15.085938 -6.964844 15.433594 -8.050781 15.714844 -8.960938 C 15.292969 -9.765625 12.003906 -10.710938 10.882812 -9.871094 C 9.941406 -7.316406 7.453125 -1.75 5.84375 -3.253906 C 5.320312 -3.746094 5.355469 -5.214844 6.125 -7.316406 C 7 -9.695312 8.996094 -11.550781 11.128906 -11.65625 C 12.914062 -11.757812 14.980469 -11.199219 16.378906 -10.078125 C 17.007812 -9.90625 18.691406 -11.898438 18.375 -12.667969 C 16.238281 -14.839844 12.039062 -15.257812 9.484375 -14.875 Z M 9.484375 -14.875 "/></g></g></g><g fill="#ffffff" fill-opacity="1"><g transform="translate(64.081197, 30.57518)"><g><path d="M 6.578125 0.28125 C 8.785156 0.28125 10.882812 -0.421875 12.566406 -1.714844 C 15.085938 -1.398438 18.480469 -1.609375 20.894531 -6.300781 C 21.105469 -6.683594 19.597656 -7.628906 19.390625 -7.140625 C 18.09375 -4.445312 16.273438 -3.570312 14.453125 -3.570312 C 17.324219 -7.351562 17.535156 -13.507812 12.84375 -14.59375 C 11.164062 -14.980469 9.132812 -14.59375 7.664062 -13.71875 C 8.714844 -17.289062 9.308594 -19.496094 10.464844 -22.890625 C 10.113281 -23.972656 6.265625 -24.464844 4.828125 -23.730469 C 3.21875 -19.179688 -1.050781 -7.105469 0.910156 -2.589844 C 1.714844 -0.804688 3.429688 0.28125 6.578125 0.28125 Z M 6.476562 -2.871094 C 4.199219 -3.464844 5.53125 -7.488281 6.71875 -10.5 C 7.875 -11.480469 8.996094 -11.898438 9.730469 -11.792969 C 11.726562 -11.515625 10.816406 -7.945312 10.042969 -6.054688 C 8.890625 -6.019531 8.121094 -4.621094 8.609375 -3.605469 C 8.085938 -3.042969 7.488281 -2.589844 6.476562 -2.871094 Z M 6.476562 -2.871094 "/></g></g></g><g fill="#ffffff" fill-opacity="1"><g transform="translate(82.980016, 30.57518)"><g><path d="M 6.300781 -16.871094 C 8.363281 -16.871094 9.660156 -18.164062 9.941406 -19.773438 C 10.21875 -21.347656 9.273438 -22.644531 7.453125 -22.679688 C 5.601562 -22.714844 4.269531 -21.417969 3.917969 -19.773438 C 3.605469 -18.234375 4.691406 -16.871094 6.300781 -16.871094 Z M 3.640625 0.246094 C 7.628906 0.0703125 10.324219 -3.289062 11.933594 -6.300781 C 12.109375 -6.613281 10.640625 -7.628906 10.429688 -7.140625 C 9.238281 -4.585938 7.140625 -2.90625 5.914062 -2.941406 C 5.460938 -2.941406 5.285156 -3.640625 5.496094 -4.96875 C 5.84375 -6.859375 6.929688 -10.007812 8.085938 -14.035156 C 7.453125 -15.191406 3.5 -15.46875 2.625 -14.734375 C 1.644531 -11.410156 0.558594 -7.769531 -0.210938 -4.445312 C -0.875 -1.609375 -0.105469 0.421875 3.640625 0.246094 Z M 3.640625 0.246094 "/></g></g></g><g fill="#ffffff" fill-opacity="1"><g transform="translate(92.8844, 30.57518)"><g><path d="M 1.503906 -5.425781 C 2.800781 -7.664062 3.988281 -10.289062 4.621094 -12.53125 C 5.25 -11.933594 6.300781 -11.09375 5.601562 -9.941406 C 4.375 -7.945312 2.835938 -5.566406 2.800781 -3.429688 C 2.765625 -1.121094 4.304688 0.351562 7.523438 0.28125 C 12.390625 0.175781 15.15625 -3.078125 16.765625 -6.335938 C 16.941406 -6.648438 15.539062 -7.59375 15.292969 -7.175781 C 13.476562 -3.816406 10.988281 -2.976562 9.660156 -2.941406 C 8.574219 -2.90625 8.328125 -3.570312 8.539062 -4.445312 C 8.820312 -5.636719 9.765625 -7.140625 10.882812 -8.609375 C 13.089844 -11.515625 9.167969 -13.441406 6.824219 -15.574219 C 8.292969 -21.105469 -0.140625 -18.621094 3.148438 -13.476562 C 2.273438 -10.464844 1.261719 -8.539062 0 -6.230469 C -0.316406 -5.636719 1.191406 -4.863281 1.503906 -5.425781 Z M 1.503906 -5.425781 "/></g></g></g><g fill="#ffffff" fill-opacity="1"><g transform="translate(107.61848, 30.57518)"><g/></g></g><g fill="#ffffff" fill-opacity="1"><g transform="translate(115.667971, 30.57518)"><g><path d="M 21.28125 -17.847656 C 22.015625 -21.769531 19.566406 -24.113281 14.804688 -24.253906 C 10.042969 -24.324219 7.316406 -22.1875 6.964844 -18.722656 C 6.335938 -12.667969 14.140625 -10.675781 13.789062 -5.84375 C 13.683594 -3.988281 12.53125 -2.765625 10.605469 -2.835938 C 8.644531 -2.90625 7.035156 -5.109375 7.945312 -8.996094 C 7.664062 -10.21875 4.199219 -10.640625 3.289062 -9.625 C 1.855469 -5.460938 2.519531 0.246094 10.253906 0.316406 C 15.363281 0.351562 19.144531 -1.679688 19.460938 -6.195312 C 19.84375 -11.933594 12.285156 -14.210938 12.632812 -18.410156 C 12.773438 -20.472656 13.964844 -20.964844 14.804688 -21 C 16.132812 -21 16.972656 -20.300781 16.660156 -18.023438 C 17.078125 -16.835938 20.648438 -16.589844 21.28125 -17.847656 Z M 21.28125 -17.847656 "/></g></g></g><g fill="#ffffff" fill-opacity="1"><g transform="translate(137.121631, 30.57518)"><g><path d="M 6.300781 -16.871094 C 8.363281 -16.871094 9.660156 -18.164062 9.941406 -19.773438 C 10.21875 -21.347656 9.273438 -22.644531 7.453125 -22.679688 C 5.601562 -22.714844 4.269531 -21.417969 3.917969 -19.773438 C 3.605469 -18.234375 4.691406 -16.871094 6.300781 -16.871094 Z M 3.640625 0.246094 C 7.628906 0.0703125 10.324219 -3.289062 11.933594 -6.300781 C 12.109375 -6.613281 10.640625 -7.628906 10.429688 -7.140625 C 9.238281 -4.585938 7.140625 -2.90625 5.914062 -2.941406 C 5.460938 -2.941406 5.285156 -3.640625 5.496094 -4.96875 C 5.84375 -6.859375 6.929688 -10.007812 8.085938 -14.035156 C 7.453125 -15.191406 3.5 -15.46875 2.625 -14.734375 C 1.644531 -11.410156 0.558594 -7.769531 -0.210938 -4.445312 C -0.875 -1.609375 -0.105469 0.421875 3.640625 0.246094 Z M 3.640625 0.246094 "/></g></g></g><g fill="#ffffff" fill-opacity="1"><g transform="translate(147.026016, 30.57518)"><g><path d="M 12.984375 -14.980469 C 10.882812 -15.015625 8.644531 -13.335938 7.386719 -12.355469 C 7.59375 -12.914062 7.734375 -13.542969 7.945312 -14.105469 C 7.070312 -15.363281 3.640625 -15.363281 2.695312 -14.734375 C 1.261719 -10.113281 -0.246094 -5.144531 -1.296875 -0.523438 C -0.875 0.699219 3.746094 0.523438 4.339844 -0.316406 C 5.144531 -3.535156 5.738281 -6.40625 6.753906 -9.695312 C 7.664062 -10.429688 8.503906 -10.953125 9.238281 -11.058594 C 10.21875 -11.199219 10.21875 -10.605469 10.007812 -9.660156 C 9.871094 -9.03125 8.996094 -5.460938 8.714844 -4.375 C 8.015625 -1.609375 8.820312 0.386719 12.425781 0.28125 C 16.378906 0.175781 19.109375 -3.640625 20.507812 -6.300781 C 20.683594 -6.648438 19.25 -7.628906 19.003906 -7.140625 C 17.917969 -4.898438 16.167969 -2.941406 14.875 -2.941406 C 14.246094 -2.941406 14.070312 -3.886719 14.351562 -5.179688 C 14.699219 -6.789062 15.46875 -8.890625 15.820312 -10.324219 C 16.484375 -13.089844 15.714844 -14.945312 12.984375 -14.980469 Z M 12.984375 -14.980469 "/></g></g></g><g fill="#ffffff" fill-opacity="1"><g transform="translate(165.50486, 30.57518)"><g><path d="M 9.519531 -14.839844 C 7.140625 -14.488281 4.199219 -12.984375 2.273438 -10.464844 C -1.121094 -6.230469 -1.015625 0.386719 4.445312 0.28125 C 7.28125 0.246094 8.855469 -1.398438 9.941406 -3.183594 C 9.484375 -1.820312 9.03125 -0.558594 8.539062 0.804688 C 4.691406 1.539062 0.839844 2.34375 0.28125 6.265625 C -0.0703125 8.820312 1.960938 10.394531 4.828125 10.394531 C 10.5 10.394531 11.550781 6.578125 13.019531 2.03125 C 16.449219 0.699219 18.375 -1.398438 21.070312 -6.265625 C 21.3125 -6.683594 19.808594 -7.59375 19.597656 -7.175781 C 17.570312 -3.464844 16.132812 -1.574219 13.71875 -0.558594 C 14.488281 -3.289062 14.875 -5.460938 15.960938 -8.925781 C 15.679688 -9.765625 11.96875 -10.710938 11.128906 -9.871094 C 10.640625 -8.609375 9.976562 -7.070312 9.519531 -6.160156 C 8.226562 -3.535156 6.683594 -2.660156 5.949219 -3.148438 C 5.355469 -3.570312 5.25 -5.039062 6.195312 -7.316406 C 7.175781 -9.695312 8.996094 -11.550781 11.128906 -11.65625 C 12.914062 -11.757812 15.191406 -11.269531 16.625 -10.078125 C 17.289062 -9.90625 18.898438 -12.003906 18.621094 -12.667969 C 16.066406 -14.910156 12.074219 -15.222656 9.519531 -14.839844 Z M 7.839844 3.429688 C 7.664062 4.128906 7.488281 4.828125 7.28125 5.425781 C 6.300781 7.875 4.058594 7.351562 4.761719 5.566406 C 5.074219 4.761719 6.160156 3.886719 7.839844 3.429688 Z M 7.839844 3.429688 "/></g></g></g><g fill="#ffffff" fill-opacity="1"><g transform="translate(184.578673, 30.57518)"><g><path d="M 5.25 -23.695312 C 3.570312 -18.164062 0.628906 -8.015625 -1.328125 -0.628906 C -1.75 0.945312 4.304688 0.488281 4.480469 -0.28125 C 5.144531 -3.011719 5.984375 -6.160156 6.929688 -9.695312 C 7.804688 -10.5 8.855469 -11.09375 9.519531 -11.164062 C 10.5 -11.269531 10.570312 -10.570312 10.253906 -9.660156 C 10.042969 -9.03125 8.890625 -5.425781 8.644531 -3.640625 C 8.363281 -1.539062 8.925781 0.523438 12.496094 0.28125 C 16.449219 0 18.96875 -3.5 20.472656 -6.300781 C 20.683594 -6.648438 19.214844 -7.628906 18.96875 -7.140625 C 17.988281 -5.039062 16.132812 -3.011719 15.015625 -2.941406 C 13.054688 -2.800781 15.398438 -8.050781 16.097656 -10.324219 C 16.941406 -13.054688 16.273438 -14.980469 13.195312 -14.980469 C 11.234375 -14.980469 9.101562 -13.648438 7.804688 -12.667969 C 8.890625 -16.835938 10.148438 -20.859375 10.816406 -22.855469 C 10.882812 -23.9375 6.476562 -24.535156 5.25 -23.695312 Z M 5.25 -23.695312 "/></g></g></g></svg>